<svg width="19px" height="13px" viewBox="0 0 19 13" version="1.1" xmlns="http://www.w3.org/2000/svg" xmlns:xlink="http://www.w3.org/1999/xlink">
    <!-- Generator: Sketch 61 (89581) - https://sketch.com -->
    <title>Group 16</title>
    <desc>Created with Sketch.</desc>
    <g id="Page-2" stroke="none" stroke-width="1" fill="none" fill-rule="evenodd">
        <g id="11-Step-5a" transform="translate(-162.000000, -476.000000)" fill="var(--color-primary)">
            <g id="Group-16" transform="translate(162.000000, 476.000000)">
                <g id="eye" fill-rule="nonzero">
                    <path d="M18.879209,5.71636523 C18.7094707,5.48417188 14.6651797,0.0309863281 9.49988867,0.0309863281 C4.33459766,0.0309863281 0.290121094,5.48417188 0.120568359,5.71614258 C-0.0401894531,5.93642383 -0.0401894531,6.23519141 0.120568359,6.45547266 C0.290121094,6.68766602 4.33459766,12.1408516 9.49988867,12.1408516 C14.6651797,12.1408516 18.7094707,6.68762891 18.879209,6.4556582 C19.0401895,6.23541406 19.0401895,5.93642383 18.879209,5.71636523 Z M9.49988867,10.8881133 C5.69510156,10.8881133 2.39975195,7.26872461 1.42425781,6.08549219 C2.39849023,4.9012207 5.6869375,1.28372461 9.49988867,1.28372461 C13.3044902,1.28372461 16.5996172,4.90248242 17.5755195,6.0863457 C16.6012871,7.27058008 13.3128398,10.8881133 9.49988867,10.8881133 Z" id="Shape"/>
                    <path d="M9.49988867,2.32768555 C7.42762695,2.32768555 5.74163672,4.01367578 5.74163672,6.0859375 C5.74163672,8.15819922 7.42762695,9.84418945 9.49988867,9.84418945 C11.5721504,9.84418945 13.2581406,8.15819922 13.2581406,6.0859375 C13.2581406,4.01367578 11.5721504,2.32768555 9.49988867,2.32768555 Z M9.49988867,8.59141406 C8.11830664,8.59141406 6.99441211,7.46748242 6.99441211,6.0859375 C6.99441211,4.70439258 8.11834375,3.58046094 9.49988867,3.58046094 C10.8814336,3.58046094 12.0053652,4.70439258 12.0053652,6.0859375 C12.0053652,7.46748242 10.8814707,8.59141406 9.49988867,8.59141406 Z" id="Shape"/>
                </g>
                <path d="M9.06818182,8.63636364 C9.87033767,8.63636364 11.0817099,8.82108267 11.6228364,8.31123433 C12.207875,7.76001208 12.0909091,6.48088669 12.0909091,5.61363636 C12.0909091,3.94423019 10.737588,2.59090909 9.06818182,2.59090909 C7.39877564,2.59090909 6.04545455,3.94423019 6.04545455,5.61363636 C6.04545455,7.28304254 7.39877564,8.63636364 9.06818182,8.63636364 Z" id="Oval"/>
            </g>
        </g>
    </g>
</svg>