<svg width="21px" height="21px" viewBox="0 0 21 21" version="1.1" xmlns="http://www.w3.org/2000/svg" xmlns:xlink="http://www.w3.org/1999/xlink">
    <title>zoom</title>
    <g id="Mobile---Section" stroke="none" stroke-width="1" fill="none" fill-rule="evenodd">
        <g id="PDP-Mobile" transform="translate(-340.000000, -133.000000)" fill="#FFFFFF" fill-rule="nonzero">
            <g id="zoom" transform="translate(340.000000, 133.000000)">
                <path d="M14.5833333,12.8333333 L13.6616667,12.8333333 L13.335,12.5183333 C14.4783333,11.1883333 15.1666667,9.46166667 15.1666667,7.58333333 C15.1666667,3.395 11.7716667,0 7.58333333,0 C3.395,0 0,3.395 0,7.58333333 C0,11.7716667 3.395,15.1666667 7.58333333,15.1666667 C9.46166667,15.1666667 11.1883333,14.4783333 12.5183333,13.335 L12.8333333,13.6616667 L12.8333333,14.5833333 L18.6666667,20.405 L20.405,18.6666667 L14.5833333,12.8333333 Z M7.58333333,12.8333333 C4.67833333,12.8333333 2.33333333,10.4883333 2.33333333,7.58333333 C2.33333333,4.67833333 4.67833333,2.33333333 7.58333333,2.33333333 C10.4883333,2.33333333 12.8333333,4.67833333 12.8333333,7.58333333 C12.8333333,10.4883333 10.4883333,12.8333333 7.58333333,12.8333333 Z" id="Shape"/>
                <polygon id="Shape" points="10.5 8.16666667 8.16666667 8.16666667 8.16666667 10.5 7 10.5 7 8.16666667 4.66666667 8.16666667 4.66666667 7 7 7 7 4.66666667 8.16666667 4.66666667 8.16666667 7 10.5 7"/>
            </g>
        </g>
    </g>
</svg>